<svg xmlns="http://www.w3.org/2000/svg" style="display: none">
  <symbol id="settings" viewBox="0 0 24 24">
    <path
      d="M9.671 4.136a2.34 2.34 0 0 1 4.659 0 2.34 2.34 0 0 0 3.319 1.915 2.34 2.34 0 0 1 2.33 4.033 2.34 2.34 0 0 0 0 3.831 2.34 2.34 0 0 1-2.33 4.033 2.34 2.34 0 0 0-3.319 1.915 2.34 2.34 0 0 1-4.659 0 2.34 2.34 0 0 0-3.32-1.915 2.34 2.34 0 0 1-2.33-4.033 2.34 2.34 0 0 0 0-3.831A2.34 2.34 0 0 1 6.35 6.051a2.34 2.34 0 0 0 3.319-1.915"
    />
    <circle cx="12" cy="12" r="3" />
  </symbol>

  <symbol id="minus" viewBox="0 0 24 24">
    <path d="M5 12h14" />
  </symbol>

  <symbol id="plus" viewBox="0 0 24 24">
    <path d="M5 12h14" />
    <path d="M12 5v14" />
  </symbol>

  <symbol id="transfer" viewBox="0 0 24 24">
    <path d="M8 3 4 7l4 4" />
    <path d="M4 7h16" />
    <path d="m16 21 4-4-4-4" />
    <path d="M20 17H4" />
  </symbol>

  <symbol id="chevron-left" viewBox="0 0 24 24">
    <path d="m15 18-6-6 6-6" />
  </symbol>

  <symbol id="chevron-right" viewBox="0 0 24 24">
    <path d="m9 18 6-6-6-6" />
  </symbol>

  <symbol id="close" viewBox="0 0 24 24">
    <path d="M18 6 6 18" />
    <path d="m6 6 12 12" />
  </symbol>

  <symbol id="nav-new" viewBox="0 0 24 24">
    <circle cx="12" cy="12" r="10" />
    <path d="M8 12h8" />
    <path d="M12 8v8" />
  </symbol>

  <symbol id="nav-accounts" viewBox="0 0 24 24">
    <path
      d="M19 7V4a1 1 0 0 0-1-1H5a2 2 0 0 0 0 4h15a1 1 0 0 1 1 1v4h-3a2 2 0 0 0 0 4h3a1 1 0 0 0 1-1v-2a1 1 0 0 0-1-1"
    />
    <path d="M3 5v14a2 2 0 0 0 2 2h15a1 1 0 0 0 1-1v-4" />
  </symbol>

  <symbol id="nav-budgets" viewBox="0 0 24 24">
    <path
      d="M21 12c.552 0 1.005-.449.95-.998a10 10 0 0 0-8.953-8.951c-.55-.055-.998.398-.998.95v8a1 1 0 0 0 1 1z"
    />
    <path d="M21.21 15.89A10 10 0 1 1 8 2.83" />
  </symbol>

  <symbol id="nav-summary" viewBox="0 0 24 24">
    <path d="M3 3v16a2 2 0 0 0 2 2h16" />
    <path d="M18 17V9" />
    <path d="M13 17V5" />
    <path d="M8 17v-3" />
  </symbol>

  <symbol id="nav-list" viewBox="0 0 24 24">
    <path d="M3 6h.01" />
    <path d="M3 12h.01" />
    <path d="M3 18h.01" />
    <path d="M8 6h13" />
    <path d="M8 12h13" />
    <path d="M8 18h13" />
  </symbol>

  <symbol id="edit" viewBox="0 0 24 24">
    <path
      d="M21.174 6.812a1 1 0 0 0-3.986-3.987L3.842 16.174a2 2 0 0 0-.5.83l-1.321 4.352a.5.5 0 0 0 .622.622l4.353-1.321a2 2 0 0 0 .83-.497z"
    />
    <path d="m15 5 4 4" />
  </symbol>
</svg>
